HIERARCHY
ROOT Hips
{
	OFFSET -339.318004 540.752076 89.163828
	CHANNELS 6 Xposition Yposition Zposition Zrotation Yrotation Xrotation 
	JOINT Spine
	{
		OFFSET 0.000028 2.080169 8.814232
		CHANNELS 3 Zrotation Yrotation Xrotation
		JOINT Spine1
		{
			OFFSET -0.000000 0.000083 8.844146
			CHANNELS 3 Zrotation Yrotation Xrotation
			JOINT Spine2
			{
				OFFSET -0.000008 0.000103 11.682259
				CHANNELS 3 Zrotation Yrotation Xrotation
				JOINT Spine3
				{
					OFFSET -0.000009 -0.000007 11.746674
					CHANNELS 3 Zrotation Yrotation Xrotation
					JOINT RightShoulder
					{
						OFFSET -2.625378 0.000078 11.175210
						CHANNELS 3 Zrotation Yrotation Xrotation
						JOINT RightArm
						{
							OFFSET -10.434741 0.000052 -0.000022
							CHANNELS 3 Zrotation Yrotation Xrotation
							JOINT RightForeArm
							{
								OFFSET -29.628440 -0.000007 -0.000025
								CHANNELS 3 Zrotation Yrotation Xrotation
								JOINT RightHand
								{
									OFFSET -22.857623 0.000019 -0.000003
									CHANNELS 3 Zrotation Yrotation Xrotation
									JOINT RightHandThumb1
									{
										OFFSET -3.959582 -2.944203 -2.867296
										CHANNELS 3 Zrotation Yrotation Xrotation
										JOINT RightHandThumb2
										{
											OFFSET -2.369078 -2.369210 -0.000035
											CHANNELS 3 Zrotation Yrotation Xrotation
											JOINT RightHandThumb3
											{
												OFFSET -2.656257 -2.656248 0.000003
												CHANNELS 3 Zrotation Yrotation Xrotation
												JOINT RightHandThumb4
												{
													OFFSET -2.225508 -2.225492 -0.000005
													CHANNELS 3 Zrotation Yrotation Xrotation
													JOINT RightHandThumb4_End
													{
														OFFSET 0.000060 -0.000022 0.000012
														CHANNELS 3 Zrotation Yrotation Xrotation
														End Site
														{
															OFFSET 0.000000 0.000000 0.000000
														}
													}
												}
											}
										}
									}
									JOINT RightHandIndex1
									{
										OFFSET -10.030903 -2.345225 -0.086752
										CHANNELS 3 Zrotation Yrotation Xrotation
										JOINT RightHandIndex2
										{
											OFFSET -4.061078 0.000016 -0.000056
											CHANNELS 3 Zrotation Yrotation Xrotation
											JOINT RightHandIndex3
											{
												OFFSET -3.248894 0.000007 -0.000018
												CHANNELS 3 Zrotation Yrotation Xrotation
												JOINT RightHandIndex4
												{
													OFFSET -2.639708 -0.000003 -0.000010
													CHANNELS 3 Zrotation Yrotation Xrotation
													JOINT RightHandIndex4_End
													{
														OFFSET 0.000029 -0.000087 0.000029
														CHANNELS 3 Zrotation Yrotation Xrotation
														End Site
														{
															OFFSET 0.000000 0.000000 0.000000
														}
													}
												}
											}
										}
									}
									JOINT RightHandMiddle1
									{
										OFFSET -9.502965 -0.006752 0.104092
										CHANNELS 3 Zrotation Yrotation Xrotation
										JOINT RightHandMiddle2
										{
											OFFSET -4.568708 0.000059 -0.000021
											CHANNELS 3 Zrotation Yrotation Xrotation
											JOINT RightHandMiddle3
											{
												OFFSET -3.655015 0.000054 0.000004
												CHANNELS 3 Zrotation Yrotation Xrotation
												JOINT RightHandMiddle4
												{
													OFFSET -2.741191 0.000005 -0.000023
													CHANNELS 3 Zrotation Yrotation Xrotation
													JOINT RightHandMiddle4_End
													{
														OFFSET -0.000003 0.000006 -0.000005
														CHANNELS 3 Zrotation Yrotation Xrotation
														End Site
														{
															OFFSET 0.000000 0.000000 0.000000
														}
													}
												}
											}
										}
									}
									JOINT RightHandRing1
									{
										OFFSET -8.921717 2.267427 0.086736
										CHANNELS 3 Zrotation Yrotation Xrotation
										JOINT RightHandRing2
										{
											OFFSET -4.061068 0.000037 -0.000024
											CHANNELS 3 Zrotation Yrotation Xrotation
											JOINT RightHandRing3
											{
												OFFSET -3.655008 0.000033 0.000003
												CHANNELS 3 Zrotation Yrotation Xrotation
												JOINT RightHandRing4
												{
													OFFSET -2.741244 -0.000028 -0.000042
													CHANNELS 3 Zrotation Yrotation Xrotation
													JOINT RightHandRing4_End
													{
														OFFSET 0.000054 0.000021 0.000009
														CHANNELS 3 Zrotation Yrotation Xrotation
														End Site
														{
															OFFSET 0.000000 0.000000 0.000000
														}
													}
												}
											}
										}
									}
									JOINT RightHandPinky1
									{
										OFFSET -7.977003 4.467187 -0.173519
										CHANNELS 3 Zrotation Yrotation Xrotation
										JOINT RightHandPinky2
										{
											OFFSET -3.350428 -0.000012 -0.000005
											CHANNELS 3 Zrotation Yrotation Xrotation
											JOINT RightHandPinky3
											{
												OFFSET -2.842748 -0.000086 -0.000017
												CHANNELS 3 Zrotation Yrotation Xrotation
												JOINT RightHandPinky4
												{
													OFFSET -2.639738 -0.000032 -0.000030
													CHANNELS 3 Zrotation Yrotation Xrotation
													JOINT RightHandPinky4_End
													{
														OFFSET -0.000018 -0.000008 -0.000024
														CHANNELS 3 Zrotation Yrotation Xrotation
														End Site
														{
															OFFSET 0.000000 0.000000 0.000000
														}
													}
												}
											}
										}
									}
									JOINT RightForeArmEnd
									{
										OFFSET -0.000008 -0.000018 -0.000006
										CHANNELS 3 Zrotation Yrotation Xrotation
										JOINT RightForeArmEnd_End
										{
											OFFSET -0.000006 -0.000016 0.000009
											CHANNELS 3 Zrotation Yrotation Xrotation
											End Site
											{
												OFFSET 0.000000 0.000000 0.000000
											}
										}
									}
								}
								JOINT RightArmEnd
								{
									OFFSET -0.000003 0.000014 -0.000025
									CHANNELS 3 Zrotation Yrotation Xrotation
									JOINT RightArmEnd_End
									{
										OFFSET 0.000021 -0.000056 -0.000005
										CHANNELS 3 Zrotation Yrotation Xrotation
										End Site
										{
											OFFSET 0.000000 0.000000 0.000000
										}
									}
								}
							}
						}
					}
					JOINT LeftShoulder
					{
						OFFSET 2.625378 0.000059 11.175219
						CHANNELS 3 Zrotation Yrotation Xrotation
						JOINT LeftArm
						{
							OFFSET 10.813689 -0.000011 0.000012
							CHANNELS 3 Zrotation Yrotation Xrotation
							JOINT LeftForeArm
							{
								OFFSET 28.724766 -0.000002 -0.000015
								CHANNELS 3 Zrotation Yrotation Xrotation
								JOINT LeftHand
								{
									OFFSET 25.716182 0.328874 -0.644358
									CHANNELS 3 Zrotation Yrotation Xrotation
									JOINT LeftHandThumb1
									{
										OFFSET 3.959578 -2.944303 -2.867329
										CHANNELS 3 Zrotation Yrotation Xrotation
										JOINT LeftHandThumb2
										{
											OFFSET 2.369130 -2.369069 -0.000018
											CHANNELS 3 Zrotation Yrotation Xrotation
											JOINT LeftHandThumb3
											{
												OFFSET 2.656265 -2.656223 -0.000005
												CHANNELS 3 Zrotation Yrotation Xrotation
												JOINT LeftHandThumb4
												{
													OFFSET 2.192024 -2.192070 0.000003
													CHANNELS 3 Zrotation Yrotation Xrotation
													JOINT LeftHandThumb4_End
													{
														OFFSET -0.000054 -0.000062 -0.000002
														CHANNELS 3 Zrotation Yrotation Xrotation
														End Site
														{
															OFFSET 0.000000 0.000000 0.000000
														}
													}
												}
											}
										}
									}
									JOINT LeftHandIndex1
									{
										OFFSET 10.030935 -2.345288 -0.086744
										CHANNELS 3 Zrotation Yrotation Xrotation
										JOINT LeftHandIndex2
										{
											OFFSET 4.061078 0.000003 0.000034
											CHANNELS 3 Zrotation Yrotation Xrotation
											JOINT LeftHandIndex3
											{
												OFFSET 3.248841 0.000026 0.000015
												CHANNELS 3 Zrotation Yrotation Xrotation
												JOINT LeftHandIndex4
												{
													OFFSET 2.639701 0.000026 0.000009
													CHANNELS 3 Zrotation Yrotation Xrotation
													JOINT LeftHandIndex4_End
													{
														OFFSET 0.000005 -0.000004 0.000005
														CHANNELS 3 Zrotation Yrotation Xrotation
														End Site
														{
															OFFSET 0.000000 0.000000 0.000000
														}
													}
												}
											}
										}
									}
									JOINT LeftHandMiddle1
									{
										OFFSET 9.502937 -0.006765 0.104127
										CHANNELS 3 Zrotation Yrotation Xrotation
										JOINT LeftHandMiddle2
										{
											OFFSET 4.568699 0.000060 -0.000030
											CHANNELS 3 Zrotation Yrotation Xrotation
											JOINT LeftHandMiddle3
											{
												OFFSET 3.654985 0.000013 -0.000019
												CHANNELS 3 Zrotation Yrotation Xrotation
												JOINT LeftHandMiddle4
												{
													OFFSET 2.741163 0.000037 -0.000011
													CHANNELS 3 Zrotation Yrotation Xrotation
													JOINT LeftHandMiddle4_End
													{
														OFFSET 0.000034 -0.000045 -0.000012
														CHANNELS 3 Zrotation Yrotation Xrotation
														End Site
														{
															OFFSET 0.000000 0.000000 0.000000
														}
													}
												}
											}
										}
									}
									JOINT LeftHandRing1
									{
										OFFSET 8.921709 2.267460 0.086779
										CHANNELS 3 Zrotation Yrotation Xrotation
										JOINT LeftHandRing2
										{
											OFFSET 4.061117 0.000014 0.000022
											CHANNELS 3 Zrotation Yrotation Xrotation
											JOINT LeftHandRing3
											{
												OFFSET 3.655033 0.000021 0.000019
												CHANNELS 3 Zrotation Yrotation Xrotation
												JOINT LeftHandRing4
												{
													OFFSET 2.741263 0.000020 0.000018
													CHANNELS 3 Zrotation Yrotation Xrotation
													JOINT LeftHandRing4_End
													{
														OFFSET 0.000004 0.000042 0.000028
														CHANNELS 3 Zrotation Yrotation Xrotation
														End Site
														{
															OFFSET 0.000000 0.000000 0.000000
														}
													}
												}
											}
										}
									}
									JOINT LeftHandPinky1
									{
										OFFSET 7.977014 4.467168 -0.173525
										CHANNELS 3 Zrotation Yrotation Xrotation
										JOINT LeftHandPinky2
										{
											OFFSET 3.350427 -0.000063 0.000015
											CHANNELS 3 Zrotation Yrotation Xrotation
											JOINT LeftHandPinky3
											{
												OFFSET 2.842772 0.000008 -0.000007
												CHANNELS 3 Zrotation Yrotation Xrotation
												JOINT LeftHandPinky4
												{
													OFFSET 2.639658 0.000010 0.000002
													CHANNELS 3 Zrotation Yrotation Xrotation
													JOINT LeftHandPinky4_End
													{
														OFFSET -0.000052 -0.000037 -0.000018
														CHANNELS 3 Zrotation Yrotation Xrotation
														End Site
														{
															OFFSET 0.000000 0.000000 0.000000
														}
													}
												}
											}
										}
									}
									JOINT LeftForeArmEnd
									{
										OFFSET -0.000003 -0.000016 -0.000010
										CHANNELS 3 Zrotation Yrotation Xrotation
										JOINT LeftForeArmEnd_End
										{
											OFFSET -0.000007 0.000015 -0.000035
											CHANNELS 3 Zrotation Yrotation Xrotation
											End Site
											{
												OFFSET 0.000000 0.000000 0.000000
											}
										}
									}
								}
								JOINT LeftArmEnd
								{
									OFFSET 0.000018 -0.000005 0.000013
									CHANNELS 3 Zrotation Yrotation Xrotation
									JOINT LeftArmEnd_End
									{
										OFFSET -0.000034 -0.000011 0.000008
										CHANNELS 3 Zrotation Yrotation Xrotation
										End Site
										{
											OFFSET 0.000000 0.000000 0.000000
										}
									}
								}
							}
						}
					}
					JOINT Neck
					{
						OFFSET -0.000017 0.000067 17.658280
						CHANNELS 3 Zrotation Yrotation Xrotation
						JOINT Neck1
						{
							OFFSET -0.000008 0.000060 5.101493
							CHANNELS 3 Zrotation Yrotation Xrotation
							JOINT Head
							{
								OFFSET 0.000003 0.088979 5.100747
								CHANNELS 3 Zrotation Yrotation Xrotation
								JOINT HeadEnd
								{
									OFFSET 0.000040 0.406782 11.647979
									CHANNELS 3 Zrotation Yrotation Xrotation
									JOINT HeadEnd_End
									{
										OFFSET 0.000007 -0.000010 -0.000014
										CHANNELS 3 Zrotation Yrotation Xrotation
										End Site
										{
											OFFSET 0.000000 0.000000 0.000000
										}
									}
								}
							}
						}
					}
				}
			}
		}
	}
	JOINT RightUpLeg
	{
		OFFSET -11.289969 0.000101 -0.000022
		CHANNELS 3 Zrotation Yrotation Xrotation
		JOINT RightLeg
		{
			OFFSET -0.000010 0.000060 -38.200305
			CHANNELS 3 Zrotation Yrotation Xrotation
			JOINT RightFoot
			{
				OFFSET -0.000043 0.000012 -39.900895
				CHANNELS 3 Zrotation Yrotation Xrotation
				JOINT RightToeBase
				{
					OFFSET -0.831579 -13.706737 -6.659907
					CHANNELS 3 Zrotation Yrotation Xrotation
					JOINT RightToeBaseEnd
					{
						OFFSET -0.096043 -7.329810 -0.769024
						CHANNELS 3 Zrotation Yrotation Xrotation
						JOINT RightToeBaseEnd_End
						{
							OFFSET -0.000060 0.000043 -0.000009
							CHANNELS 3 Zrotation Yrotation Xrotation
							End Site
							{
								OFFSET 0.000000 0.000000 0.000000
							}
						}
					}
				}
				JOINT RightLegEnd
				{
					OFFSET -0.000034 -0.000077 -0.000025
					CHANNELS 3 Zrotation Yrotation Xrotation
					JOINT RightLegEnd_End
					{
						OFFSET 0.000013 -0.000042 -0.000037
						CHANNELS 3 Zrotation Yrotation Xrotation
						End Site
						{
							OFFSET 0.000000 0.000000 0.000000
						}
					}
				}
			}
			JOINT RightUpLegEnd
			{
				OFFSET -0.000006 0.000005 -0.000017
				CHANNELS 3 Zrotation Yrotation Xrotation
				JOINT RightUpLegEnd_End
				{
					OFFSET 0.000000 0.000046 -0.000006
					CHANNELS 3 Zrotation Yrotation Xrotation
					End Site
					{
						OFFSET 0.000000 0.000000 0.000000
					}
				}
			}
		}
	}
	JOINT LeftUpLeg
	{
		OFFSET 11.315695 0.000090 -0.000036
		CHANNELS 3 Zrotation Yrotation Xrotation
		JOINT LeftLeg
		{
			OFFSET -0.000004 0.000098 -38.200306
			CHANNELS 3 Zrotation Yrotation Xrotation
			JOINT LeftFoot
			{
				OFFSET 0.000049 -0.000031 -39.900859
				CHANNELS 3 Zrotation Yrotation Xrotation
				JOINT LeftToeBase
				{
					OFFSET 0.733943 -13.739153 -6.604058
					CHANNELS 3 Zrotation Yrotation Xrotation
					JOINT LeftToeBaseEnd
					{
						OFFSET 0.094197 -7.501874 -0.750442
						CHANNELS 3 Zrotation Yrotation Xrotation
						JOINT LeftToeBaseEnd_End
						{
							OFFSET -0.000026 -0.000002 0.000003
							CHANNELS 3 Zrotation Yrotation Xrotation
							End Site
							{
								OFFSET 0.000000 0.000000 0.000000
							}
						}
					}
				}
				JOINT LeftLegEnd
				{
					OFFSET 0.000011 0.000023 -0.000022
					CHANNELS 3 Zrotation Yrotation Xrotation
					JOINT LeftLegEnd_End
					{
						OFFSET 0.000029 0.000046 0.000009
						CHANNELS 3 Zrotation Yrotation Xrotation
						End Site
						{
							OFFSET 0.000000 0.000000 0.000000
						}
					}
				}
			}
			JOINT LeftUpLegEnd
			{
				OFFSET 0.000014 -0.000039 0.000020
				CHANNELS 3 Zrotation Yrotation Xrotation
				JOINT LeftUpLegEnd_End
				{
					OFFSET -0.000031 0.000006 0.000017
					CHANNELS 3 Zrotation Yrotation Xrotation
					End Site
					{
						OFFSET 0.000000 0.000000 0.000000
					}
				}
			}
		}
	}
}
MOTION
Frames: 3
Frame Time: 0.050000
-339.318004 540.752076 89.163828 -152.662491 -0.165489 -0.815314 0.081386 0.849290 2.362963 -0.087708 -0.759249 -0.039721 1.415029 0.371246 -0.391705 0.383784 -0.193731 -0.007194 -0.052272 17.654589 -0.001785 -17.418755 -21.554976 -18.019798 11.897225 2.410936 -11.965058 -25.854996 11.851510 10.777957 -4.086993 -8.114393 2.175201 -20.159994 0.000012 -0.000009 -13.999996 0.000003 -0.000003 -0.000004 -0.000001 0.000000 0.000001 0.000004 -0.000002 -8.595976 -0.831301 0.125970 -0.000005 -0.587499 0.000009 0.000012 -0.587453 -0.000009 -0.000001 0.000002 -0.000001 0.000003 -0.000003 0.000002 -10.865954 0.760591 -0.145742 -0.000000 -0.000000 -0.000000 0.000000 -0.000000 -0.000001 0.000002 0.000002 -0.000001 -0.000001 0.000000 -0.000000 -13.149284 2.404001 -0.561266 -0.000002 0.000000 -0.000000 -0.000001 0.000001 0.000001 -0.000002 0.000001 -0.000003 -0.000007 0.000001 -0.000002 -14.304100 4.663964 -1.187757 0.000002 -0.000000 -0.000001 0.000000 -0.000001 -0.000001 0.000001 0.000004 0.000001 0.000003 -0.000004 0.000005 -0.000002 0.000006 -0.000001 0.000001 -0.000002 0.000002 -0.000002 -0.000001 -0.000001 -0.000001 0.000001 -0.000005 -3.850226 -13.770340 -0.001821 15.660772 25.682110 -21.958416 -34.345543 -9.699782 -31.660387 34.682945 -22.880976 31.534117 2.798065 5.507346 1.477024 13.679994 0.000010 0.000003 9.499937 0.000001 -0.000000 -0.000001 -0.000004 0.000001 0.000002 0.000001 -0.000000 5.024453 -10.754625 -0.939871 -0.000001 0.000001 -0.000001 -0.000001 0.000001 0.000001 0.000000 0.000001 -0.000002 0.000001 -0.000004 -0.000001 7.520357 -11.334576 -1.486405 0.000001 -0.000000 0.000001 0.000000 -0.000000 -0.000000 -0.000001 0.000000 0.000002 -0.000001 -0.000003 0.000003 11.660033 -11.682506 -2.393257 0.000001 -0.000000 0.000002 0.000001 0.000000 0.000001 -0.000000 -0.000001 0.000003 -0.000002 0.000000 -0.000002 15.132648 -11.694962 -3.138558 0.000000 -0.000000 -0.000001 0.000001 -0.000001 -0.000001 -0.000001 -0.000000 -0.000002 -0.000001 -0.000003 0.000004 0.000002 -0.000002 0.000001 0.000002 0.000005 -0.000000 -0.000002 0.000001 -0.000001 -0.000002 -0.000000 -0.000001 1.304973 1.598429 7.873335 0.583807 -0.039703 -0.883211 0.740261 0.356405 -18.495102 0.000002 0.000000 -0.000000 -0.000001 -0.000000 0.000001 9.649230 1.266300 2.214278 -0.737470 0.103864 7.523792 -5.439773 -5.266901 -7.572366 1.118534 0.500795 -1.510060 -0.000003 0.000001 0.000003 -0.000004 0.000002 0.000001 -0.000002 -0.000006 0.000001 -0.000002 -0.000001 -0.000003 0.000002 -0.000002 -0.000001 -0.000001 -0.000001 -0.000000 7.845812 -0.957998 5.113739 0.949016 -0.052023 2.832920 4.155647 6.549307 -4.574112 -1.510098 -0.025411 -0.553238 -0.000002 -0.000000 -0.000003 -0.000009 0.000001 -0.000002 -0.000002 0.000004 -0.000004 0.000001 0.000000 -0.000005 0.000004 0.000001 0.000000 -0.000001 -0.000001 0.000001 
-339.317143 540.751697 89.164274 -152.668762 -0.163874 -0.814198 0.081002 0.849299 2.361108 -0.087719 -0.759360 -0.036003 1.421864 0.371248 -0.384863 0.383638 -0.193663 -0.000005 -0.039762 17.679413 -0.002443 -17.412867 -21.500168 -17.997255 11.901322 2.405375 -11.936786 -25.842493 11.862747 10.773484 -4.086998 -8.114397 2.175203 -20.159986 0.000009 -0.000003 -13.999990 0.000003 -0.000003 -0.000002 -0.000001 0.000000 0.000001 0.000004 -0.000002 -8.624389 -0.760256 0.115386 -0.000005 -0.537395 0.000008 0.000008 -0.537408 -0.000008 -0.000001 0.000001 -0.000001 0.000003 -0.000002 0.000002 -10.886443 0.835675 -0.160650 0.000000 -0.000000 0.000000 0.000000 0.000000 -0.000000 0.000002 0.000002 -0.000001 -0.000001 -0.000001 -0.000001 -13.155403 2.497634 -0.583508 -0.000002 0.000000 -0.000000 -0.000001 0.000000 0.000000 -0.000001 0.000000 -0.000002 -0.000006 -0.000000 -0.000001 -14.290247 4.775237 -1.214720 0.000001 -0.000000 -0.000001 0.000000 -0.000000 -0.000001 0.000002 0.000003 0.000001 0.000002 -0.000003 0.000005 -0.000002 0.000005 -0.000001 0.000002 -0.000002 0.000001 -0.000001 -0.000001 -0.000000 -0.000000 -0.000000 -0.000003 -3.865110 -13.776471 0.000451 15.650271 25.692122 -21.964201 -34.356857 -9.711744 -31.656357 34.673321 -22.812342 31.457069 2.798070 5.507348 1.477020 13.679989 0.000007 0.000003 9.499946 0.000002 -0.000003 -0.000001 -0.000004 0.000000 0.000002 0.000001 -0.000001 5.061167 -10.768913 -0.948052 -0.000001 0.000001 -0.000001 -0.000001 0.000001 0.000001 0.000001 -0.000000 -0.000001 0.000001 -0.000004 -0.000000 7.532428 -11.346604 -1.490259 0.000001 -0.000000 0.000001 0.000000 -0.000000 0.000000 -0.000001 -0.000000 0.000002 -0.000001 -0.000002 0.000002 11.646367 -11.692242 -2.391880 0.000001 -0.000000 0.000001 0.000001 0.000000 0.000001 -0.000000 -0.000001 0.000002 -0.000002 0.000000 -0.000002 15.093235 -11.702127 -3.130905 -0.000000 -0.000000 -0.000001 0.000001 -0.000001 -0.000001 -0.000002 -0.000001 -0.000001 -0.000001 -0.000002 0.000004 0.000000 -0.000001 0.000001 0.000002 0.000005 0.000000 -0.000002 0.000000 -0.000001 -0.000001 -0.000001 -0.000000 1.305027 1.605178 7.848275 0.583428 -0.034885 -0.888757 0.739860 0.357789 -18.492674 0.000001 0.000000 -0.000000 -0.000001 0.000000 0.000001 9.649442 1.266199 2.208975 -0.737475 0.103865 7.525732 -5.433153 -5.263315 -7.568978 1.118605 0.500916 -1.510049 -0.000003 0.000001 0.000003 -0.000003 0.000002 0.000001 -0.000002 -0.000006 0.000001 -0.000002 -0.000002 -0.000003 0.000002 -0.000002 -0.000001 -0.000001 -0.000001 0.000000 7.843290 -0.959785 5.109994 0.949022 -0.052023 2.833992 4.184540 6.544255 -4.577180 -1.510043 -0.025405 -0.552828 -0.000003 0.000000 -0.000003 -0.000008 0.000002 -0.000002 -0.000001 0.000005 -0.000004 0.000002 0.000001 -0.000005 0.000003 0.000001 0.000000 -0.000001 -0.000001 0.000001 
-339.316470 540.752833 89.164622 -152.674683 -0.162356 -0.812293 0.080699 0.849307 2.360232 -0.087730 -0.759460 -0.033530 1.428461 0.371248 -0.377523 0.383502 -0.193599 0.007308 -0.026701 17.700354 -0.002884 -17.407993 -21.450430 -17.979700 11.908942 2.401924 -11.914347 -25.830320 11.876065 10.775632 -4.087003 -8.114397 2.175205 -20.159981 0.000006 0.000002 -13.999988 0.000004 -0.000003 -0.000001 -0.000000 0.000000 0.000001 0.000004 -0.000002 -8.651323 -0.699140 0.106313 -0.000004 -0.494306 0.000006 0.000004 -0.494363 -0.000006 -0.000001 0.000001 -0.000001 0.000003 -0.000001 0.000002 -10.906219 0.900527 -0.173560 0.000000 0.000000 0.000000 0.000000 0.000000 -0.000000 0.000002 0.000002 -0.000001 -0.000001 -0.000001 -0.000001 -13.162480 2.579181 -0.602966 -0.000001 -0.000000 -0.000001 -0.000000 0.000000 0.000000 -0.000000 -0.000000 -0.000002 -0.000004 -0.000001 -0.000001 -14.279746 4.872928 -1.238551 0.000001 -0.000000 -0.000001 0.000000 -0.000000 -0.000001 0.000002 0.000002 0.000002 0.000002 -0.000003 0.000004 -0.000001 0.000004 -0.000000 0.000003 -0.000003 0.000001 -0.000001 -0.000001 0.000000 0.000000 -0.000001 -0.000002 -3.878903 -13.781259 0.002488 15.639009 25.700792 -21.970640 -34.367485 -9.723335 -31.652157 34.664009 -22.755140 31.390059 2.798074 5.507350 1.477017 13.679983 0.000006 0.000002 9.499953 0.000002 -0.000004 -0.000001 -0.000003 -0.000000 0.000003 0.000001 -0.000001 5.093271 -10.776992 -0.954814 -0.000001 0.000001 -0.000001 -0.000001 0.000000 0.000001 0.000001 -0.000001 -0.000001 0.000000 -0.000004 0.000000 7.539654 -11.353045 -1.492451 0.000000 -0.000000 0.000001 0.000000 -0.000000 0.000000 -0.000001 -0.000001 0.000002 -0.000001 -0.000002 0.000002 11.624956 -11.697412 -2.388065 0.000001 -0.000000 0.000001 0.000001 0.000000 0.000001 -0.000000 -0.000000 0.000001 -0.000002 -0.000000 -0.000001 15.040971 -11.706161 -3.119879 -0.000001 -0.000000 -0.000000 0.000001 -0.000001 -0.000000 -0.000003 -0.000001 -0.000001 -0.000000 -0.000002 0.000004 -0.000001 -0.000001 0.000001 0.000002 0.000005 0.000000 -0.000002 -0.000000 -0.000001 -0.000001 -0.000001 0.000000 1.305711 1.611779 7.824831 0.583128 -0.030494 -0.894610 0.739592 0.359415 -18.490704 0.000000 0.000000 -0.000000 -0.000001 0.000000 0.000000 9.649061 1.265858 2.204276 -0.737479 0.103866 7.527219 -5.426228 -5.260203 -7.566336 1.118667 0.501011 -1.510094 -0.000003 0.000001 0.000003 -0.000002 0.000002 0.000001 -0.000001 -0.000006 0.000001 -0.000001 -0.000003 -0.000003 0.000001 -0.000001 -0.000001 -0.000001 -0.000001 0.000000 7.840554 -0.961683 5.107038 0.949029 -0.052022 2.834617 4.210767 6.540147 -4.580117 -1.510009 -0.025399 -0.552611 -0.000004 0.000000 -0.000003 -0.000008 0.000002 -0.000002 -0.000000 0.000006 -0.000004 0.000003 0.000001 -0.000005 0.000002 0.000000 0.000000 -0.000001 -0.000001 0.000001 
